<?xml version="1.0" encoding="utf-8"?>
<!-- Generator: Adobe Illustrator 15.0.2, SVG Export Plug-In . SVG Version: 6.00 Build 0)  -->
<!DOCTYPE svg PUBLIC "-//W3C//DTD SVG 1.1//EN" "http://www.w3.org/Graphics/SVG/1.1/DTD/svg11.dtd">
<svg version="1.1" id="Layer_1" xmlns="http://www.w3.org/2000/svg" xmlns:xlink="http://www.w3.org/1999/xlink" x="0px" y="0px"
	 width="512px" height="512px" viewBox="0 0 512 512" enable-background="new 0 0 512 512" xml:space="preserve">
<path d="M256,162.909c-51.432,0-93.091,41.659-93.091,93.091s41.659,93.091,93.091,93.091s93.091-41.659,93.091-93.091
	S307.432,162.909,256,162.909z M464.057,232.728c-10.704-97.046-87.738-174.08-184.784-184.784V0h-46.545v47.943
	c-97.046,10.704-174.08,87.738-184.784,184.784H0v46.545h47.943c10.704,97.046,87.738,174.08,184.784,184.784V512h46.545v-47.943
	c97.046-10.704,174.08-87.738,184.784-184.784H512v-46.545H464.057z M256,418.909c-89.949,0-162.909-72.955-162.909-162.909
	c0-89.949,72.96-162.909,162.909-162.909c89.954,0,162.909,72.96,162.909,162.909C418.909,345.954,345.954,418.909,256,418.909z"/>
</svg>
